<?xml version="1.0" encoding="UTF-8" standalone="no"?>
<!DOCTYPE svg PUBLIC "-//W3C//DTD SVG 20010904//EN"
              "http://www.w3.org/TR/2001/REC-SVG-20010904/DTD/svg10.dtd">

<svg xmlns="http://www.w3.org/2000/svg"
     width="8in" height="3.33333in"
     viewBox="0 0 2400 1000">
  <path id="Path"
        fill="none" stroke="black" stroke-width="1"
        d="M 720.28,340.00
           C 720.28,340.00 616.03,340.00 616.03,340.00
             616.03,340.00 592.62,405.00 592.62,405.00
             592.62,405.00 558.78,405.00 558.78,405.00
             558.78,405.00 653.81,156.50 653.81,156.50
             653.81,156.50 682.52,156.50 682.52,156.50
             682.52,156.50 777.70,405.00 777.70,405.00
             777.70,405.00 744.05,405.00 744.05,405.00
             744.05,405.00 720.28,340.00 720.28,340.00 Z
           M 625.95,313.00
           C 625.95,313.00 710.55,313.00 710.55,313.00
             710.55,313.00 668.16,196.91 668.16,196.91
             668.16,196.91 625.95,313.00 625.95,313.00 Z
           M 798.00,310.47
           C 798.00,296.32 799.73,283.46 803.20,271.89
             806.68,260.31 811.61,250.38 817.98,242.11
             824.37,233.83 832.03,227.41 840.97,222.84
             849.91,218.28 859.90,216.00 870.95,216.00
             882.23,216.00 892.09,217.92 900.52,221.77
             908.94,225.60 916.23,231.13 922.39,238.36
             922.39,238.36 922.39,143.00 922.39,143.00
             922.39,143.00 954.00,143.00 954.00,143.00
             954.00,143.00 954.00,405.00 954.00,405.00
             954.00,405.00 924.95,405.00 924.95,405.00
             924.95,405.00 923.42,384.67 923.42,384.67
             917.27,392.23 909.87,398.00 901.20,402.00
             892.55,406.00 882.35,408.00 870.62,408.00
             859.80,408.00 849.91,405.66 840.97,400.98
             832.03,396.31 824.37,389.78 817.98,381.39
             811.61,373.01 806.68,363.08 803.20,351.61
             799.73,340.14 798.00,327.62 798.00,314.05
             798.00,314.05 798.00,310.47 798.00,310.47 Z
           M 829.61,314.05
           C 829.61,323.28 830.55,331.96 832.42,340.11
             834.30,348.25 837.23,355.33 841.22,361.36
             845.21,367.39 850.27,372.17 856.42,375.70
             862.58,379.23 869.93,381.00 878.47,381.00
             884.05,381.00 889.06,380.35 893.50,379.05
             897.95,377.73 901.96,375.88 905.55,373.48
             909.14,371.09 912.33,368.24 915.12,364.94
             917.91,361.64 920.34,358.00 922.39,354.02
             922.39,354.02 922.39,269.12 922.39,269.12
             920.34,265.37 917.94,261.89 915.20,258.70
             912.47,255.52 909.31,252.76 905.72,250.42
             902.13,248.09 898.12,246.27 893.67,244.97
             889.23,243.66 884.28,243.00 878.81,243.00
             870.16,243.00 862.72,244.80 856.52,248.39
             850.30,251.98 845.21,256.84 841.22,262.98
             837.23,269.13 834.30,276.28 832.42,284.42
             830.55,292.56 829.61,301.24 829.61,310.47
             829.61,310.47 829.61,314.05 829.61,314.05 Z
           M 1079.62,408.00
           C 1066.77,408.00 1055.14,405.79 1044.73,401.38
             1034.33,396.95 1025.43,390.79 1018.03,382.91
             1010.64,375.01 1004.96,365.62 1000.97,354.72
             996.99,343.82 995.00,331.91 995.00,318.97
             995.00,318.97 995.00,311.81 995.00,311.81
             995.00,296.84 997.24,283.45 1001.73,271.64
             1006.22,259.84 1012.22,249.91 1019.73,241.86
             1027.24,233.80 1035.83,227.64 1045.50,223.39
             1055.16,219.13 1065.23,217.00 1075.70,217.00
             1088.88,217.00 1100.24,219.29 1109.80,223.86
             1119.36,228.43 1127.24,234.73 1133.44,242.75
             1139.63,250.77 1144.21,260.26 1147.17,271.20
             1150.13,282.15 1151.61,294.06 1151.61,306.94
             1151.61,306.94 1151.61,321.00 1151.61,321.00
             1151.61,321.00 1026.61,321.00 1026.61,321.00
             1026.61,329.57 1027.89,337.58 1030.45,345.02
             1033.02,352.45 1036.68,358.90 1041.42,364.39
             1046.17,369.88 1051.88,374.23 1058.56,377.44
             1065.25,380.64 1072.83,382.23 1081.30,382.23
             1092.48,382.23 1101.96,379.95 1109.73,375.38
             1117.50,370.79 1124.30,364.73 1130.14,357.19
             1130.14,357.19 1149.25,372.28 1149.25,372.28
             1146.28,376.84 1142.69,381.26 1138.48,385.53
             1134.29,389.80 1129.37,393.62 1123.73,396.98
             1118.11,400.34 1111.66,403.01 1104.38,405.00
             1097.09,407.00 1088.84,408.00 1079.62,408.00 Z
           M 1075.89,242.77
           C 1069.47,242.77 1063.57,243.92 1058.19,246.23
             1052.81,248.55 1048.01,251.91 1043.78,256.31
             1039.55,260.72 1036.03,266.20 1033.22,272.73
             1030.41,279.28 1028.50,286.78 1027.47,295.23
             1027.47,295.23 1120.00,295.23 1120.00,295.23
             1120.00,295.23 1120.00,292.86 1120.00,292.86
             1120.00,286.78 1119.16,280.75 1117.50,274.77
             1115.84,268.78 1113.27,263.41 1109.78,258.67
             1106.29,253.93 1101.80,250.10 1096.30,247.17
             1090.80,244.23 1084.00,242.77 1075.89,242.77 Z
           M 1344.00,314.94
           C 1344.00,328.49 1342.41,341.00 1339.22,352.45
             1336.04,363.90 1331.41,373.81 1325.31,382.19
             1319.23,390.56 1311.75,397.09 1302.88,401.77
             1294.00,406.43 1283.88,408.77 1272.50,408.77
             1260.91,408.77 1250.75,406.95 1242.05,403.31
             1233.34,399.67 1225.86,394.38 1219.61,387.44
             1219.61,387.44 1219.61,476.00 1219.61,476.00
             1219.61,476.00 1188.00,476.00 1188.00,476.00
             1188.00,476.00 1188.00,220.00 1188.00,220.00
             1188.00,220.00 1216.88,220.00 1216.88,220.00
             1216.88,220.00 1218.41,241.02 1218.41,241.02
             1224.66,233.25 1232.23,227.30 1241.11,223.19
             1249.98,219.06 1260.28,217.00 1272.00,217.00
             1283.59,217.00 1293.85,219.28 1302.78,223.84
             1311.72,228.40 1319.26,234.81 1325.41,243.08
             1331.55,251.34 1336.19,261.25 1339.31,272.81
             1342.44,284.38 1344.00,297.22 1344.00,311.34
             1344.00,311.34 1344.00,314.94 1344.00,314.94 Z
           M 1312.39,311.45
           C 1312.39,302.23 1311.42,293.54 1309.48,285.41
             1307.55,277.27 1304.54,270.13 1300.44,263.98
             1296.34,257.84 1291.17,252.98 1284.92,249.39
             1278.67,245.80 1271.22,244.00 1262.58,244.00
             1257.23,244.00 1252.38,244.62 1248.00,245.88
             1243.62,247.12 1239.68,248.89 1236.16,251.17
             1232.63,253.45 1229.51,256.15 1226.78,259.28
             1224.05,262.42 1221.66,265.80 1219.61,269.44
             1219.61,269.44 1219.61,357.73 1219.61,357.73
             1221.66,361.37 1224.05,364.76 1226.78,367.89
             1229.51,371.03 1232.63,373.70 1236.16,375.92
             1239.68,378.13 1243.65,379.87 1248.08,381.12
             1252.52,382.38 1257.46,383.00 1262.92,383.00
             1271.45,383.00 1278.81,381.18 1285.00,377.53
             1291.20,373.89 1296.34,368.99 1300.44,362.84
             1304.54,356.70 1307.55,349.50 1309.48,341.25
             1311.42,333.00 1312.39,324.26 1312.39,315.03
             1312.39,315.03 1312.39,311.45 1312.39,311.45 Z
           M 1427.00,175.50
           C 1427.00,175.50 1427.00,220.00 1427.00,220.00
             1427.00,220.00 1462.00,220.00 1462.00,220.00
             1462.00,220.00 1462.00,244.00 1462.00,244.00
             1462.00,244.00 1427.00,244.00 1427.00,244.00
             1427.00,244.00 1427.00,358.77 1427.00,358.77
             1427.00,363.55 1427.57,367.40 1428.72,370.31
             1429.88,373.22 1431.41,375.48 1433.31,377.08
             1435.22,378.67 1437.41,379.73 1439.89,380.23
             1442.38,380.75 1444.95,381.00 1447.61,381.00
             1450.27,381.00 1453.07,380.75 1456.02,380.23
             1458.96,379.73 1461.24,379.30 1462.86,378.95
             1462.86,378.95 1462.86,404.58 1462.86,404.58
             1460.33,405.27 1457.05,406.00 1453.03,406.80
             1449.02,407.60 1444.15,408.00 1438.42,408.00
             1432.57,408.00 1427.02,407.17 1421.80,405.52
             1416.58,403.87 1412.02,401.11 1408.12,397.23
             1404.23,393.35 1401.13,388.25 1398.83,381.92
             1396.54,375.59 1395.39,367.81 1395.39,358.58
             1395.39,358.58 1395.39,244.00 1395.39,244.00
             1395.39,244.00 1362.00,244.00 1362.00,244.00
             1362.00,244.00 1362.00,220.00 1362.00,220.00
             1362.00,220.00 1395.39,220.00 1395.39,220.00
             1395.39,220.00 1395.39,175.50 1395.39,175.50
             1395.39,175.50 1427.00,175.50 1427.00,175.50 Z
           M 1613.19,386.25
           C 1607.35,393.11 1599.98,398.45 1591.06,402.27
             1582.14,406.09 1571.41,408.00 1558.84,408.00
             1549.70,408.00 1541.41,406.72 1533.98,404.17
             1526.55,401.61 1520.16,397.57 1514.78,392.06
             1509.41,386.54 1505.27,379.43 1502.36,370.73
             1499.45,362.03 1498.00,351.53 1498.00,339.25
             1498.00,339.25 1498.00,220.00 1498.00,220.00
             1498.00,220.00 1529.61,220.00 1529.61,220.00
             1529.61,220.00 1529.61,339.44 1529.61,339.44
             1529.61,347.73 1530.58,354.57 1532.52,359.97
             1534.45,365.36 1537.02,369.61 1540.20,372.73
             1543.39,375.86 1547.04,378.02 1551.14,379.22
             1555.24,380.41 1559.46,381.00 1563.78,381.00
             1576.66,381.00 1587.01,378.56 1594.81,373.67
             1602.62,368.79 1608.35,362.26 1612.00,354.08
             1612.00,354.08 1612.00,220.00 1612.00,220.00
             1612.00,220.00 1643.61,220.00 1643.61,220.00
             1643.61,220.00 1643.61,405.00 1643.61,405.00
             1643.61,405.00 1613.19,405.00 1613.19,405.00
             1613.19,405.00 1613.19,386.25 1613.19,386.25 Z
           M 1799.39,355.67
           C 1799.39,352.28 1798.88,349.08 1797.84,346.08
             1796.82,343.07 1794.80,340.23 1791.78,337.56
             1788.76,334.90 1784.46,332.43 1778.88,330.16
             1773.30,327.89 1765.96,325.79 1756.84,323.88
             1746.59,321.71 1737.37,319.15 1729.17,316.20
             1720.97,313.26 1713.99,309.71 1708.23,305.58
             1702.48,301.43 1698.07,296.53 1695.00,290.86
             1691.93,285.18 1690.39,278.54 1690.39,270.94
             1690.39,263.68 1692.01,256.79 1695.25,250.27
             1698.49,243.75 1703.06,238.02 1708.97,233.09
             1714.88,228.16 1722.05,224.24 1730.45,221.34
             1738.86,218.45 1748.24,217.00 1758.59,217.00
             1769.61,217.00 1779.47,218.51 1788.16,221.52
             1796.85,224.52 1804.24,228.62 1810.31,233.83
             1816.39,239.04 1821.03,245.12 1824.22,252.09
             1827.41,259.06 1829.00,266.51 1829.00,274.44
             1829.00,274.44 1797.39,274.44 1797.39,274.44
             1797.39,270.70 1796.54,266.93 1794.83,263.12
             1793.12,259.31 1790.61,255.91 1787.31,252.91
             1784.02,249.90 1779.98,247.45 1775.20,245.58
             1770.43,243.70 1764.92,242.77 1758.67,242.77
             1752.07,242.77 1746.46,243.54 1741.86,245.08
             1737.25,246.61 1733.47,248.66 1730.52,251.22
             1727.57,253.77 1725.41,256.67 1724.05,259.91
             1722.68,263.14 1722.00,266.45 1722.00,269.86
             1722.00,273.27 1722.57,276.34 1723.70,279.06
             1724.85,281.78 1727.02,284.25 1730.20,286.47
             1733.39,288.68 1737.74,290.72 1743.27,292.59
             1748.79,294.47 1755.94,296.38 1764.72,298.31
             1775.99,300.92 1785.78,303.87 1794.09,307.16
             1802.41,310.45 1809.30,314.28 1814.77,318.66
             1820.23,323.03 1824.30,328.06 1826.98,333.73
             1829.66,339.41 1831.00,346.00 1831.00,353.48
             1831.00,361.56 1829.32,368.95 1825.95,375.64
             1822.60,382.34 1817.79,388.07 1811.52,392.84
             1805.25,397.62 1797.73,401.34 1788.95,404.00
             1780.18,406.66 1770.44,408.00 1759.72,408.00
             1747.41,408.00 1736.56,406.30 1727.16,402.89
             1717.75,399.48 1709.85,394.97 1703.47,389.34
             1697.09,383.71 1692.25,377.29 1688.95,370.08
             1685.65,362.86 1684.00,355.45 1684.00,347.83
             1684.00,347.83 1715.61,347.83 1715.61,347.83
             1715.61,354.31 1717.02,359.73 1719.83,364.09
             1722.64,368.46 1726.16,372.01 1730.41,374.73
             1734.66,377.45 1739.30,379.39 1744.34,380.53
             1749.38,381.67 1754.43,382.23 1759.47,382.23
             1766.01,382.23 1771.74,381.56 1776.67,380.20
             1781.61,378.84 1785.77,376.96 1789.16,374.58
             1792.54,372.20 1795.09,369.39 1796.81,366.16
             1798.53,362.92 1799.39,359.42 1799.39,355.67 Z
           M 685.00,646.00
           C 685.00,646.00 606.00,646.00 606.00,646.00
             606.00,646.00 606.00,867.50 606.00,867.50
             606.00,867.50 573.00,867.50 573.00,867.50
             573.00,867.50 573.00,646.00 573.00,646.00
             573.00,646.00 493.00,646.00 493.00,646.00
             493.00,646.00 493.00,619.00 493.00,619.00
             493.00,619.00 685.00,619.00 685.00,619.00
             685.00,619.00 685.00,646.00 685.00,646.00 Z
           M 751.00,867.00
           C 751.00,867.00 719.39,867.00 719.39,867.00
             719.39,867.00 719.39,682.00 719.39,682.00
             719.39,682.00 751.00,682.00 751.00,682.00
             751.00,682.00 751.00,867.00 751.00,867.00 Z
           M 717.00,633.17
           C 717.00,628.08 718.55,623.78 721.64,620.27
             724.74,616.76 729.33,615.00 735.41,615.00
             741.49,615.00 746.11,616.76 749.27,620.27
             752.42,623.78 754.00,628.08 754.00,633.17
             754.00,638.27 752.42,642.51 749.27,645.91
             746.11,649.30 741.49,651.00 735.41,651.00
             729.33,651.00 724.74,649.30 721.64,645.91
             718.55,642.51 717.00,638.27 717.00,633.17 Z
           M 844.00,637.50
           C 844.00,637.50 844.00,682.00 844.00,682.00
             844.00,682.00 879.00,682.00 879.00,682.00
             879.00,682.00 879.00,706.00 879.00,706.00
             879.00,706.00 844.00,706.00 844.00,706.00
             844.00,706.00 844.00,820.77 844.00,820.77
             844.00,825.55 844.57,829.40 845.72,832.31
             846.88,835.22 848.41,837.48 850.31,839.08
             852.22,840.67 854.41,841.73 856.89,842.23
             859.38,842.75 861.95,843.00 864.61,843.00
             867.27,843.00 870.07,842.75 873.02,842.23
             875.96,841.73 878.24,841.30 879.86,840.95
             879.86,840.95 879.86,866.58 879.86,866.58
             877.33,867.27 874.05,868.00 870.03,868.80
             866.02,869.60 861.15,870.00 855.42,870.00
             849.57,870.00 844.02,869.17 838.80,867.52
             833.58,865.87 829.02,863.11 825.12,859.23
             821.23,855.35 818.13,850.25 815.83,843.92
             813.54,837.59 812.39,829.81 812.39,820.58
             812.39,820.58 812.39,706.00 812.39,706.00
             812.39,706.00 779.00,706.00 779.00,706.00
             779.00,706.00 779.00,682.00 779.00,682.00
             779.00,682.00 812.39,682.00 812.39,682.00
             812.39,682.00 812.39,637.50 812.39,637.50
             812.39,637.50 844.00,637.50 844.00,637.50 Z
           M 1030.36,866.70
           C 1029.21,864.45 1028.30,861.61 1027.61,858.20
             1026.93,854.79 1026.36,851.23 1025.91,847.53
             1022.95,850.55 1019.62,853.43 1015.92,856.17
             1012.22,858.91 1008.18,861.32 1003.80,863.39
             999.42,865.45 994.67,867.07 989.55,868.23
             984.42,869.41 979.01,870.00 973.31,870.00
             963.88,870.00 955.31,868.58 947.62,865.75
             939.94,862.91 933.39,859.05 927.98,854.17
             922.58,849.30 918.39,843.55 915.44,836.92
             912.48,830.29 911.00,823.16 911.00,815.55
             911.00,805.70 912.93,797.00 916.80,789.45
             920.67,781.90 926.22,775.58 933.45,770.48
             940.68,765.38 949.41,761.53 959.66,758.92
             969.91,756.31 981.35,755.00 993.98,755.00
             993.98,755.00 1025.39,755.00 1025.39,755.00
             1025.39,755.00 1025.39,740.39 1025.39,740.39
             1025.39,729.29 1022.09,720.45 1015.50,713.88
             1008.91,707.29 999.20,704.00 986.34,704.00
             980.44,704.00 975.04,704.80 970.14,706.41
             965.25,708.00 961.08,710.15 957.61,712.84
             954.14,715.53 951.44,718.65 949.50,722.20
             947.57,725.76 946.61,729.48 946.61,733.36
             946.61,733.36 915.00,733.36 915.00,733.36
             915.00,726.70 916.73,720.11 920.19,713.56
             923.66,707.01 928.57,701.12 934.94,695.89
             941.30,690.66 949.00,686.41 958.03,683.14
             967.07,679.87 977.16,678.23 988.30,678.23
             998.30,678.23 1007.53,679.52 1016.00,682.08
             1024.47,684.64 1031.71,688.52 1037.73,693.72
             1043.77,698.91 1048.48,705.38 1051.89,713.12
             1055.30,720.88 1057.00,729.94 1057.00,740.31
             1057.00,740.31 1057.00,826.34 1057.00,826.34
             1057.00,832.62 1057.54,839.20 1058.62,846.11
             1059.71,853.01 1061.33,858.96 1063.48,863.97
             1063.48,863.97 1063.48,866.70 1063.48,866.70
             1063.48,866.70 1030.36,866.70 1030.36,866.70 Z
           M 977.94,843.00
           C 983.63,843.00 988.98,842.20 993.98,840.61
             998.99,839.01 1003.55,836.91 1007.64,834.33
             1011.74,831.75 1015.30,828.79 1018.31,825.47
             1021.32,822.15 1023.68,818.71 1025.39,815.16
             1025.39,815.16 1025.39,777.00 1025.39,777.00
             1025.39,777.00 999.11,777.00 999.11,777.00
             981.02,777.00 967.07,779.84 957.28,785.52
             947.50,791.18 942.61,799.75 942.61,811.22
             942.61,815.68 943.35,819.86 944.83,823.77
             946.30,827.66 948.55,831.02 951.56,833.83
             954.58,836.63 958.28,838.86 962.66,840.52
             967.04,842.17 972.13,843.00 977.94,843.00 Z
           M 1137.41,682.00
           C 1137.41,682.00 1137.41,705.83 1137.41,705.83
             1144.05,697.45 1152.07,690.89 1161.47,686.14
             1170.88,681.38 1181.43,679.00 1193.12,679.00
             1202.18,679.00 1210.37,680.23 1217.70,682.67
             1225.05,685.11 1231.30,689.03 1236.45,694.44
             1241.61,699.84 1245.59,706.78 1248.39,715.25
             1251.20,723.72 1252.61,733.98 1252.61,746.05
             1252.61,746.05 1252.61,867.00 1252.61,867.00
             1252.61,867.00 1221.00,867.00 1221.00,867.00
             1221.00,867.00 1221.00,745.88 1221.00,745.88
             1221.00,738.71 1220.20,732.60 1218.59,727.55
             1216.99,722.50 1214.62,718.38 1211.48,715.20
             1208.35,712.03 1204.47,709.70 1199.84,708.22
             1195.22,706.74 1189.88,706.00 1183.83,706.00
             1173.55,706.00 1164.52,708.73 1156.75,714.17
             1148.99,719.62 1142.94,726.78 1138.61,735.64
             1138.61,735.64 1138.61,867.00 1138.61,867.00
             1138.61,867.00 1107.00,867.00 1107.00,867.00
             1107.00,867.00 1107.00,682.00 1107.00,682.00
             1107.00,682.00 1137.41,682.00 1137.41,682.00 Z
           M 1334.00,867.00
           C 1334.00,867.00 1302.39,867.00 1302.39,867.00
             1302.39,867.00 1302.39,682.00 1302.39,682.00
             1302.39,682.00 1334.00,682.00 1334.00,682.00
             1334.00,682.00 1334.00,867.00 1334.00,867.00 Z
           M 1300.00,633.17
           C 1300.00,628.08 1301.55,623.78 1304.64,620.27
             1307.74,616.76 1312.33,615.00 1318.41,615.00
             1324.49,615.00 1329.11,616.76 1332.27,620.27
             1335.42,623.78 1337.00,628.08 1337.00,633.17
             1337.00,638.27 1335.42,642.51 1332.27,645.91
             1329.11,649.30 1324.49,651.00 1318.41,651.00
             1312.33,651.00 1307.74,649.30 1304.64,645.91
             1301.55,642.51 1300.00,638.27 1300.00,633.17 Z
           M 1458.36,844.23
           C 1463.94,844.23 1469.30,843.33 1474.42,841.52
             1479.55,839.70 1484.07,837.20 1488.00,834.02
             1491.94,830.84 1495.13,827.06 1497.58,822.69
             1500.02,818.31 1501.48,813.57 1501.94,808.47
             1501.94,808.47 1531.50,808.47 1531.50,808.47
             1531.50,816.65 1529.47,824.46 1525.41,831.91
             1521.35,839.34 1516.02,845.88 1509.39,851.50
             1502.77,857.12 1495.10,861.62 1486.38,864.97
             1477.64,868.32 1468.37,870.00 1458.55,870.00
             1444.62,870.00 1432.49,867.53 1422.16,862.59
             1411.82,857.66 1403.23,850.99 1396.38,842.59
             1389.53,834.20 1384.42,824.45 1381.05,813.33
             1377.68,802.20 1376.00,790.45 1376.00,778.08
             1376.00,778.08 1376.00,770.92 1376.00,770.92
             1376.00,758.56 1377.68,746.82 1381.05,735.70
             1384.42,724.58 1389.53,714.82 1396.38,706.42
             1403.23,698.02 1411.79,691.34 1422.06,686.41
             1432.34,681.47 1444.45,679.00 1458.38,679.00
             1469.22,679.00 1479.06,680.70 1487.91,684.11
             1496.76,687.51 1504.41,692.18 1510.86,698.12
             1517.32,704.07 1522.37,711.13 1526.02,719.30
             1529.67,727.45 1531.50,736.23 1531.50,745.64
             1531.50,745.64 1501.94,745.64 1501.94,745.64
             1501.48,739.96 1500.14,734.66 1497.92,729.72
             1495.70,724.78 1492.71,720.47 1488.95,716.78
             1485.19,713.09 1480.72,710.16 1475.53,708.00
             1470.35,705.84 1464.57,704.77 1458.19,704.77
             1448.39,704.77 1440.28,706.70 1433.84,710.56
             1427.41,714.43 1422.22,719.51 1418.28,725.81
             1414.35,732.11 1411.59,739.20 1410.00,747.09
             1408.41,754.98 1407.61,762.90 1407.61,770.84
             1407.61,770.84 1407.61,777.98 1407.61,777.98
             1407.61,786.17 1408.41,794.21 1410.00,802.09
             1411.59,809.98 1414.33,817.04 1418.20,823.28
             1422.08,829.52 1427.26,834.57 1433.75,838.44
             1440.25,842.30 1448.45,844.23 1458.36,844.23 Z
           M 1681.19,848.25
           C 1675.35,855.11 1667.98,860.45 1659.06,864.27
             1650.14,868.09 1639.41,870.00 1626.84,870.00
             1617.70,870.00 1609.41,868.72 1601.98,866.17
             1594.55,863.61 1588.16,859.57 1582.78,854.06
             1577.41,848.54 1573.27,841.43 1570.36,832.73
             1567.45,824.03 1566.00,813.53 1566.00,801.25
             1566.00,801.25 1566.00,682.00 1566.00,682.00
             1566.00,682.00 1597.61,682.00 1597.61,682.00
             1597.61,682.00 1597.61,801.44 1597.61,801.44
             1597.61,809.73 1598.58,816.57 1600.52,821.97
             1602.45,827.36 1605.02,831.61 1608.20,834.73
             1611.39,837.86 1615.04,840.02 1619.14,841.22
             1623.24,842.41 1627.46,843.00 1631.78,843.00
             1644.66,843.00 1655.01,840.56 1662.81,835.67
             1670.62,830.79 1676.35,824.26 1680.00,816.08
             1680.00,816.08 1680.00,682.00 1680.00,682.00
             1680.00,682.00 1711.61,682.00 1711.61,682.00
             1711.61,682.00 1711.61,867.00 1711.61,867.00
             1711.61,867.00 1681.19,867.00 1681.19,867.00
             1681.19,867.00 1681.19,848.25 1681.19,848.25 Z
           M 1867.39,817.67
           C 1867.39,814.28 1866.88,811.08 1865.84,808.08
             1864.82,805.07 1862.80,802.23 1859.78,799.56
             1856.76,796.90 1852.46,794.43 1846.88,792.16
             1841.30,789.89 1833.96,787.79 1824.84,785.88
             1814.59,783.71 1805.37,781.15 1797.17,778.20
             1788.97,775.26 1781.99,771.71 1776.23,767.58
             1770.48,763.43 1766.07,758.53 1763.00,752.86
             1759.93,747.18 1758.39,740.54 1758.39,732.94
             1758.39,725.68 1760.01,718.79 1763.25,712.27
             1766.49,705.75 1771.06,700.02 1776.97,695.09
             1782.88,690.16 1790.05,686.24 1798.45,683.34
             1806.86,680.45 1816.24,679.00 1826.59,679.00
             1837.61,679.00 1847.47,680.51 1856.16,683.52
             1864.85,686.52 1872.24,690.62 1878.31,695.83
             1884.39,701.04 1889.03,707.12 1892.22,714.09
             1895.41,721.06 1897.00,728.51 1897.00,736.44
             1897.00,736.44 1865.39,736.44 1865.39,736.44
             1865.39,732.70 1864.54,728.93 1862.83,725.12
             1861.12,721.31 1858.61,717.91 1855.31,714.91
             1852.02,711.90 1847.98,709.45 1843.20,707.58
             1838.43,705.70 1832.92,704.77 1826.67,704.77
             1820.07,704.77 1814.46,705.54 1809.86,707.08
             1805.25,708.61 1801.47,710.66 1798.52,713.22
             1795.57,715.77 1793.41,718.67 1792.05,721.91
             1790.68,725.14 1790.00,728.45 1790.00,731.86
             1790.00,735.27 1790.57,738.34 1791.70,741.06
             1792.85,743.78 1795.02,746.25 1798.20,748.47
             1801.39,750.68 1805.74,752.72 1811.27,754.59
             1816.79,756.47 1823.94,758.38 1832.72,760.31
             1843.99,762.92 1853.78,765.87 1862.09,769.16
             1870.41,772.45 1877.30,776.28 1882.77,780.66
             1888.23,785.03 1892.30,790.06 1894.98,795.73
             1897.66,801.41 1899.00,808.00 1899.00,815.48
             1899.00,823.56 1897.32,830.95 1893.95,837.64
             1890.60,844.34 1885.79,850.07 1879.52,854.84
             1873.25,859.62 1865.73,863.34 1856.95,866.00
             1848.18,868.66 1838.44,870.00 1827.72,870.00
             1815.41,870.00 1804.56,868.30 1795.16,864.89
             1785.75,861.48 1777.85,856.97 1771.47,851.34
             1765.09,845.71 1760.25,839.29 1756.95,832.08
             1753.65,824.86 1752.00,817.45 1752.00,809.83
             1752.00,809.83 1783.61,809.83 1783.61,809.83
             1783.61,816.31 1785.02,821.73 1787.83,826.09
             1790.64,830.46 1794.16,834.01 1798.41,836.73
             1802.66,839.45 1807.30,841.39 1812.34,842.53
             1817.38,843.67 1822.43,844.23 1827.47,844.23
             1834.01,844.23 1839.74,843.56 1844.67,842.20
             1849.61,840.84 1853.77,838.96 1857.16,836.58
             1860.54,834.20 1863.09,831.39 1864.81,828.16
             1866.53,824.92 1867.39,821.42 1867.39,817.67 Z" />
</svg>
